<svg xmlns="http://www.w3.org/2000/svg" version="1.1" xmlns:xlink="http://www.w3.org/1999/xlink" width="1000" height="1000"><metadata><rdf:RDF xmlns:rdf="http://www.w3.org/1999/02/22-rdf-syntax-ns#" xmlns:dc="http://purl.org/dc/elements/1.1/"><rdf:Description><dc:creator>RealFaviconGenerator</dc:creator><dc:source>https://realfavicongenerator.net</dc:source></rdf:Description></rdf:RDF></metadata><g clip-path="url(#SvgjsClipPath1017)"><rect width="1000" height="1000" fill="#ffffff"></rect><g transform="matrix(31.25,0,0,31.25,0,0)"><svg xmlns="http://www.w3.org/2000/svg" viewBox="0 0 32 32" width="32" height="32"><defs>
    <linearGradient id="bg2" x1="0%" y1="0%" x2="100%" y2="100%">
      <stop offset="0%" style="stop-color:#0a2540"></stop>
      <stop offset="100%" style="stop-color:#0e7490"></stop>
    </linearGradient>
    <linearGradient id="accent" x1="0%" y1="0%" x2="100%" y2="100%">
      <stop offset="0%" style="stop-color:#67e8f9;stop-opacity:0.5"></stop>
      <stop offset="100%" style="stop-color:#0891b2;stop-opacity:0"></stop>
    </linearGradient>
  <clipPath id="SvgjsClipPath1017"><rect width="1000" height="1000" x="0" y="0" rx="350" ry="350"></rect></clipPath></defs><rect width="32" height="32" rx="7" fill="url(#bg2)"></rect><ellipse cx="8" cy="8" rx="13" ry="11" fill="url(#accent)"></ellipse><rect x="0.5" y="0.5" width="31" height="31" rx="6.5" fill="none" stroke="#0891b2" stroke-width="0.8" stroke-opacity="0.6"></rect><text x="15" y="22.5" text-anchor="middle" font-family="system-ui, -apple-system, Arial Black, sans-serif" font-weight="900" font-size="20" fill="#0891b2" opacity="0.4" dx="0.5" dy="0.5">P</text><text x="15" y="22.5" text-anchor="middle" font-family="system-ui, -apple-system, Arial Black, sans-serif" font-weight="900" font-size="20" fill="#ffffff">P</text><polygon points="27,5 27.9,7.8 30.8,7.8 28.5,9.5 29.4,12.3 27,10.6 24.6,12.3 25.5,9.5 23.2,7.8 26.1,7.8" fill="#67e8f9" opacity="0.85" transform="scale(0.55) translate(23, -2)"></polygon><line x1="20" y1="27" x2="28" y2="27" stroke="#0891b2" stroke-width="1.5" stroke-linecap="round" opacity="0.6"></line></svg></g></g></svg>